<?xml version="1.0" encoding="utf-8"?>
<!-- Generator: Adobe Illustrator 27.3.1, SVG Export Plug-In . SVG Version: 6.00 Build 0)  -->
<svg version="1.1" id="Layer_1" xmlns="http://www.w3.org/2000/svg" xmlns:xlink="http://www.w3.org/1999/xlink" x="0px" y="0px"
	 viewBox="0 0 438.2 351.3" style="enable-background:new 0 0 438.2 351.3;" xml:space="preserve">
<style type="text/css">
	.st0{fill:#F6AF00;}
	.st1{fill:#E8E8E8;}
	.st2{fill:#FFFFFF;}
	.st3{fill:#1A1A1A;}
	.st4{fill:none;}
	.st5{fill:#F2F2F2;}
</style>
<g>
	<path class="st0" d="M307.7,262.6H130.5c-14.6,0-26.5-11.9-26.5-26.5V115.2c0-14.6,11.9-26.5,26.5-26.5h177.2
		c14.6,0,26.5,11.9,26.5,26.5V236C334.2,250.7,322.3,262.6,307.7,262.6z"/>
	<g>
		<path class="st1" d="M227.6,175.4l28.7-3.4c1.5-0.2,2.8,0.9,3,2.3l3.6,30.3c0.2,1.5-0.9,2.8-2.3,3l-28.7,3.4
			c-1.5,0.2-2.8-0.9-3-2.3l-3.6-30.3C225.1,176.9,226.1,175.6,227.6,175.4z"/>
		<g>
			<g>
				<path d="M138.6,224.3h-2.3V222h7.2v2.3h-2.3v7.4h-2.5V224.3z"/>
				<path d="M144.4,222h5.5v2.3h-3v1.6h3v2h-3v1.6h3.2v2.3h-5.6V222z"/>
				<path d="M155.8,231.9c-1,0-1.8-0.2-2.6-0.7c-0.8-0.4-1.4-1.1-1.8-1.8c-0.4-0.8-0.7-1.6-0.7-2.6c0-0.9,0.2-1.8,0.7-2.6
					c0.4-0.8,1.1-1.4,1.8-1.8s1.6-0.7,2.6-0.7c0.8,0,1.6,0.2,2.3,0.5c0.7,0.4,1.3,0.9,1.8,1.5c0.5,0.6,0.8,1.3,0.9,2.1h-2.6
					c-0.1-0.5-0.4-0.9-0.9-1.2s-0.9-0.5-1.5-0.5c-0.5,0-0.9,0.1-1.3,0.3c-0.4,0.2-0.7,0.5-0.9,0.9c-0.2,0.4-0.3,0.8-0.3,1.3
					s0.1,0.9,0.3,1.3c0.2,0.4,0.5,0.7,0.9,0.9c0.4,0.2,0.8,0.3,1.3,0.3c0.5,0,1-0.2,1.5-0.5c0.4-0.3,0.7-0.7,0.9-1.2h2.6
					c-0.1,0.8-0.4,1.5-0.9,2.1c-0.5,0.6-1.1,1.1-1.8,1.5C157.4,231.7,156.6,231.9,155.8,231.9z"/>
				<path d="M167.6,227.9h-3.5v3.7h-2.5V222h2.5v3.7h3.5V222h2.5v9.7h-2.5V227.9z"/>
				<path d="M171.4,222h2.2l3.9,5.6V222h2.4v9.7h-2.1l-4-5.5v5.5h-2.4V222z"/>
				<path d="M186,231.9c-0.9,0-1.8-0.2-2.6-0.7s-1.4-1.1-1.9-1.8c-0.5-0.8-0.7-1.6-0.7-2.6c0-0.9,0.2-1.8,0.7-2.6
					c0.5-0.8,1.1-1.4,1.9-1.8c0.8-0.4,1.6-0.7,2.6-0.7c0.9,0,1.8,0.2,2.6,0.7c0.8,0.5,1.4,1.1,1.8,1.8s0.7,1.6,0.7,2.6
					c0,0.9-0.2,1.8-0.7,2.6s-1.1,1.4-1.8,1.8S186.9,231.9,186,231.9z M186,229.4c0.5,0,0.9-0.1,1.3-0.3c0.4-0.2,0.7-0.5,0.9-0.9
					c0.2-0.4,0.3-0.8,0.3-1.3c0-0.5-0.1-0.9-0.3-1.3c-0.2-0.4-0.5-0.7-0.9-0.9c-0.4-0.2-0.8-0.3-1.3-0.3c-0.5,0-0.9,0.1-1.3,0.3
					s-0.7,0.5-0.9,0.9c-0.2,0.4-0.3,0.8-0.3,1.3c0,0.5,0.1,0.9,0.3,1.3c0.2,0.4,0.5,0.7,0.9,0.9C185.1,229.3,185.5,229.4,186,229.4z
					"/>
				<path d="M192,222h2.3l2.7,4.4l2.7-4.4h2.3v9.7h-2.4V226l-2.2,3.4h-0.9l-2.2-3.4v5.7H192V222z"/>
				<path d="M203.4,222h5.5v2.3h-3v1.6h3v2h-3v1.6h3.2v2.3h-5.6V222z"/>
				<path d="M210.1,222h3.5c0.7,0,1.4,0.1,1.9,0.4c0.6,0.3,1,0.7,1.3,1.2s0.5,1.1,0.5,1.7c0,0.6-0.1,1.1-0.4,1.6
					c-0.3,0.5-0.7,0.9-1.2,1.1l2.1,3.6h-2.8l-1.7-3.1h-0.6v3.1h-2.5V222z M213.5,226.6c0.4,0,0.7-0.1,1-0.3s0.4-0.5,0.4-0.9
					c0-0.4-0.1-0.6-0.4-0.9s-0.6-0.3-0.9-0.3h-0.9v2.4H213.5z"/>
				<path d="M221.3,222h3.3l3.1,9.7h-2.6l-0.5-1.8h-3.4l-0.5,1.8h-2.6L221.3,222z M221.8,227.9h2.2l-1.1-3.6L221.8,227.9z"/>
				<path d="M229,224.3h-2.3V222h7.2v2.3h-2.3v7.4H229V224.3z"/>
				<path d="M234.8,222h5.5v2.3h-3v1.6h3v2h-3v1.6h3.2v2.3h-5.6V222z"/>
				<path d="M242.7,231.5c-0.6-0.3-1-0.7-1.2-1.2c-0.3-0.5-0.4-1.1-0.3-1.8h2.4c0,0.4,0,0.7,0.2,0.9s0.5,0.3,0.9,0.3
					c0.3,0,0.6-0.1,0.8-0.2s0.3-0.4,0.3-0.6c0-0.3-0.1-0.5-0.4-0.7c-0.2-0.2-0.6-0.3-1.2-0.5c-0.6-0.2-1.1-0.4-1.4-0.6
					c-0.4-0.2-0.7-0.5-1-0.9s-0.4-0.9-0.4-1.5c0-0.6,0.1-1.1,0.4-1.6c0.3-0.5,0.7-0.8,1.2-1.1c0.5-0.2,1.1-0.4,1.7-0.4
					c0.8,0,1.4,0.1,1.9,0.4s0.9,0.7,1.2,1.2c0.3,0.5,0.4,1.1,0.3,1.7h-2.4c0-0.4,0-0.6-0.2-0.8c-0.2-0.2-0.4-0.3-0.8-0.3
					c-0.3,0-0.5,0.1-0.7,0.2s-0.2,0.3-0.2,0.6c0,0.3,0.1,0.5,0.4,0.7c0.3,0.2,0.7,0.4,1.2,0.6c0.6,0.2,1.1,0.4,1.4,0.6
					c0.4,0.2,0.7,0.5,1,0.9s0.4,0.9,0.4,1.5c0,0.6-0.1,1.1-0.4,1.6s-0.7,0.8-1.3,1c-0.5,0.2-1.2,0.4-1.9,0.4
					C243.9,231.9,243.3,231.8,242.7,231.5z"/>
				<path d="M252.6,222h2.8c0.7,0,1.4,0.2,2,0.5c0.6,0.3,1,0.7,1.4,1.3s0.5,1.1,0.5,1.8c0,0.7-0.2,1.3-0.5,1.8
					c-0.3,0.5-0.8,1-1.4,1.3c-0.6,0.3-1.2,0.5-2,0.5h-0.3v2.6h-2.5V222z M255.5,226.8c0.5,0,0.8-0.1,1.1-0.3
					c0.3-0.2,0.4-0.5,0.4-0.9c0-0.4-0.1-0.7-0.4-0.9c-0.2-0.2-0.6-0.4-1.1-0.4h-0.3v2.6H255.5z"/>
				<path d="M262,222l2.2,7.1l2.2-7.1h2.6l-3.2,9.7h-3.1l-3.3-9.7H262z"/>
				<path d="M271.8,224.3h-2.3V222h7.2v2.3h-2.3v7.4h-2.5V224.3z"/>
				<path d="M281,222h2.4v7.4h3.2v2.3H281V222z"/>
				<path d="M287.8,224.3h-2.3V222h7.2v2.3h-2.3v7.4h-2.5V224.3z"/>
				<path d="M293.6,222h3.5c0.9,0,1.7,0.2,2.5,0.6c0.8,0.4,1.4,1,1.8,1.8c0.4,0.7,0.7,1.6,0.7,2.4c0,0.9-0.2,1.7-0.7,2.5
					c-0.4,0.7-1,1.3-1.8,1.8c-0.8,0.4-1.6,0.7-2.5,0.7h-3.5V222z M298.3,229c0.4-0.2,0.7-0.5,0.9-0.9c0.2-0.4,0.3-0.8,0.3-1.3
					s-0.1-0.9-0.3-1.3c-0.2-0.4-0.5-0.7-0.9-0.9c-0.4-0.2-0.8-0.3-1.2-0.3h-1.1v5.1h1.1C297.6,229.4,298,229.3,298.3,229z"/>
			</g>
		</g>
		<g>
			<g>
				<path d="M137.9,239.1h-2l-0.3,1h-0.8l1.7-4.8h0.9l1.7,4.8h-0.8L137.9,239.1z M136.8,236.2l-0.8,2.2h1.6L136.8,236.2z"/>
				<path d="M143.8,235.2c1,0,1.9,0.5,2.2,1.5h-1c-0.3-0.5-0.7-0.8-1.3-0.8c-1,0-1.7,0.7-1.7,1.8c0,1.1,0.7,1.8,1.7,1.8
					c0.6,0,1-0.2,1.3-0.8h1c-0.4,0.9-1.2,1.4-2.2,1.4c-1.4,0-2.5-1-2.5-2.5C141.3,236.2,142.4,235.2,143.8,235.2z"/>
				<path d="M149.2,240.2c-1.4,0-2.5-1-2.5-2.5c0-1.4,1.1-2.5,2.5-2.5c1.4,0,2.5,1,2.5,2.5C151.7,239.1,150.6,240.2,149.2,240.2z
					 M149.2,239.5c1,0,1.7-0.7,1.7-1.8c0-1.1-0.7-1.8-1.7-1.8s-1.7,0.7-1.7,1.8C147.5,238.8,148.2,239.5,149.2,239.5z"/>
				<path d="M156.4,235.3v4.8h-0.8l-2.4-3.6v3.6h-0.8v-4.8h0.8l2.4,3.6v-3.6H156.4z"/>
				<path d="M159,240.2c-1,0-1.7-0.5-1.7-1.4h0.8c0,0.4,0.3,0.7,0.9,0.7c0.6,0,0.9-0.3,0.9-0.7c0-1.2-2.6-0.4-2.6-2.2
					c0-0.8,0.7-1.4,1.7-1.4c0.9,0,1.6,0.5,1.6,1.3h-0.9c0-0.3-0.3-0.6-0.8-0.6c-0.5,0-0.8,0.2-0.8,0.7c0,1.1,2.6,0.4,2.6,2.2
					C160.7,239.5,160.1,240.2,159,240.2z"/>
				<path d="M161.4,235.3h3.4v0.6h-1.3v4.2h-0.8v-4.2h-1.3V235.3z"/>
				<path d="M167.3,235.3c1.1,0,1.7,0.7,1.7,1.4c0,0.6-0.3,1.2-1.1,1.4l1.2,2h-0.9l-1.1-1.9h-0.6v1.9h-0.8v-4.8H167.3z M167.3,235.9
					h-0.9v1.6h0.9c0.6,0,0.9-0.3,0.9-0.8C168.2,236.2,167.9,235.9,167.3,235.9z"/>
				<path d="M170,235.3h0.8v3.1c0,0.8,0.4,1.1,1.1,1.1c0.7,0,1.1-0.4,1.1-1.1v-3.1h0.8v3.1c0,1.2-0.9,1.8-1.9,1.8
					c-1,0-1.9-0.6-1.9-1.8V235.3z"/>
				<path d="M177,235.2c1,0,1.9,0.5,2.2,1.5h-1c-0.3-0.5-0.7-0.8-1.3-0.8c-1,0-1.7,0.7-1.7,1.8c0,1.1,0.7,1.8,1.7,1.8
					c0.6,0,1-0.2,1.3-0.8h1c-0.4,0.9-1.2,1.4-2.2,1.4c-1.4,0-2.5-1-2.5-2.5C174.5,236.2,175.6,235.2,177,235.2z"/>
				<path d="M179.9,235.3h3.4v0.6H182v4.2h-0.8v-4.2h-1.3V235.3z"/>
				<path d="M184.1,235.3h0.8v4.8h-0.8V235.3z"/>
				<path d="M188.1,240.2c-1.4,0-2.5-1-2.5-2.5c0-1.4,1.1-2.5,2.5-2.5c1.4,0,2.5,1,2.5,2.5C190.6,239.1,189.5,240.2,188.1,240.2z
					 M188.1,239.5c1,0,1.7-0.7,1.7-1.8c0-1.1-0.7-1.8-1.7-1.8s-1.7,0.7-1.7,1.8C186.5,238.8,187.2,239.5,188.1,239.5z"/>
				<path d="M195.4,235.3v4.8h-0.8l-2.4-3.6v3.6h-0.8v-4.8h0.8l2.4,3.6v-3.6H195.4z"/>
				<path d="M198,235.3h3.4v0.6h-1.3v4.2h-0.8v-4.2H198V235.3z"/>
				<path d="M204.8,235.9h-1.9v1.4h1.7v0.6h-1.7v1.5h1.9v0.6h-2.7v-4.8h2.7V235.9z"/>
				<path d="M208,235.2c1,0,1.9,0.5,2.2,1.5h-1c-0.3-0.5-0.7-0.8-1.3-0.8c-1,0-1.7,0.7-1.7,1.8c0,1.1,0.7,1.8,1.7,1.8
					c0.6,0,1-0.2,1.3-0.8h1c-0.4,0.9-1.2,1.4-2.2,1.4c-1.4,0-2.5-1-2.5-2.5C205.5,236.2,206.6,235.2,208,235.2z"/>
				<path d="M214.2,238H212v2.1h-0.8v-4.8h0.8v2.1h2.3v-2.1h0.8v4.8h-0.8V238z"/>
				<path d="M220,235.3v4.8h-0.8l-2.4-3.6v3.6h-0.8v-4.8h0.8l2.4,3.6v-3.6H220z"/>
				<path d="M223.3,240.2c-1.4,0-2.5-1-2.5-2.5c0-1.4,1.1-2.5,2.5-2.5c1.4,0,2.5,1,2.5,2.5C225.8,239.1,224.7,240.2,223.3,240.2z
					 M223.3,239.5c1,0,1.7-0.7,1.7-1.8c0-1.1-0.7-1.8-1.7-1.8s-1.7,0.7-1.7,1.8C221.6,238.8,222.3,239.5,223.3,239.5z"/>
				<path d="M227.3,235.3v4.2h1.6v0.6h-2.4v-4.8H227.3z"/>
				<path d="M231.8,240.2c-1.4,0-2.5-1-2.5-2.5c0-1.4,1.1-2.5,2.5-2.5c1.4,0,2.5,1,2.5,2.5C234.3,239.1,233.2,240.2,231.8,240.2z
					 M231.8,239.5c1,0,1.7-0.7,1.7-1.8c0-1.1-0.7-1.8-1.7-1.8s-1.7,0.7-1.7,1.8C230.2,238.8,230.9,239.5,231.8,239.5z"/>
				<path d="M239.6,236.7h-1c-0.3-0.5-0.7-0.7-1.3-0.7c-1,0-1.7,0.7-1.7,1.7s0.7,1.8,1.7,1.8c0.9,0,1.4-0.5,1.5-1.3H237v-0.6h2.7
					v0.6c-0.1,1.1-1.1,2.1-2.4,2.1c-1.4,0-2.5-1-2.5-2.5c0-1.4,1.1-2.5,2.5-2.5C238.3,235.2,239.2,235.7,239.6,236.7z"/>
				<path d="M240.1,235.3h0.9l1.1,2.4l1.1-2.4h0.9l-1.6,3.1v1.8h-0.8v-1.8L240.1,235.3z"/>
				<path d="M248.7,235.2c1,0,1.9,0.5,2.2,1.5h-1c-0.3-0.5-0.7-0.8-1.3-0.8c-1,0-1.7,0.7-1.7,1.8c0,1.1,0.7,1.8,1.7,1.8
					c0.6,0,1-0.2,1.3-0.8h1c-0.4,0.9-1.2,1.4-2.2,1.4c-1.4,0-2.5-1-2.5-2.5C246.2,236.2,247.3,235.2,248.7,235.2z"/>
				<path d="M254.1,240.2c-1.4,0-2.5-1-2.5-2.5c0-1.4,1.1-2.5,2.5-2.5c1.4,0,2.5,1,2.5,2.5C256.6,239.1,255.5,240.2,254.1,240.2z
					 M254.1,239.5c1,0,1.7-0.7,1.7-1.8c0-1.1-0.7-1.8-1.7-1.8s-1.7,0.7-1.7,1.8C252.4,238.8,253.1,239.5,254.1,239.5z"/>
				<path d="M261.3,235.3v4.8h-0.8l-2.4-3.6v3.6h-0.8v-4.8h0.8l2.4,3.6v-3.6H261.3z"/>
				<path d="M266.8,236.7h-1c-0.3-0.5-0.7-0.7-1.3-0.7c-1,0-1.7,0.7-1.7,1.7s0.7,1.8,1.7,1.8c0.9,0,1.4-0.5,1.5-1.3h-1.8v-0.6h2.7
					v0.6c-0.1,1.1-1.1,2.1-2.4,2.1c-1.4,0-2.5-1-2.5-2.5c0-1.4,1.1-2.5,2.5-2.5C265.6,235.2,266.4,235.7,266.8,236.7z"/>
				<path d="M268.5,235.3v4.2h1.6v0.6h-2.4v-4.8H268.5z"/>
				<path d="M273,240.2c-1.4,0-2.5-1-2.5-2.5c0-1.4,1.1-2.5,2.5-2.5c1.4,0,2.5,1,2.5,2.5C275.5,239.1,274.4,240.2,273,240.2z
					 M273,239.5c1,0,1.7-0.7,1.7-1.8c0-1.1-0.7-1.8-1.7-1.8s-1.7,0.7-1.7,1.8C271.4,238.8,272.1,239.5,273,239.5z"/>
				<path d="M276.3,235.3h0.9l1.7,3.8l1.7-3.8h0.8v4.8h-0.8v-3.3l-1.5,3.3h-0.5l-1.5-3.3v3.3h-0.8V235.3z"/>
				<path d="M285.1,235.9h-1.9v1.4h1.7v0.6h-1.7v1.5h1.9v0.6h-2.7v-4.8h2.7V235.9z"/>
				<path d="M287.7,235.3c1.1,0,1.7,0.7,1.7,1.4c0,0.6-0.3,1.2-1.1,1.4l1.2,2h-0.9l-1.1-1.9h-0.6v1.9h-0.8v-4.8H287.7z M287.7,235.9
					h-0.9v1.6h0.9c0.6,0,0.9-0.3,0.9-0.8C288.6,236.2,288.4,235.9,287.7,235.9z"/>
				<path d="M293.4,239.1h-2l-0.3,1h-0.8l1.7-4.8h0.9l1.7,4.8h-0.8L293.4,239.1z M292.4,236.2l-0.8,2.2h1.6L292.4,236.2z"/>
				<path d="M295.1,235.3h3.4v0.6h-1.3v4.2h-0.8v-4.2h-1.3V235.3z"/>
				<path d="M301.9,235.9H300v1.4h1.7v0.6H300v1.5h1.9v0.6h-2.7v-4.8h2.7V235.9z"/>
			</g>
		</g>
		<path class="st2" d="M197.3,172.2l28.7,3.1c1.5,0.2,2.5,1.5,2.4,2.9l-3.2,30.3c-0.2,1.5-1.5,2.5-2.9,2.4l-28.7-3.1
			c-1.5-0.2-2.5-1.5-2.4-2.9l3.2-30.3C194.5,173.1,195.9,172,197.3,172.2z"/>
		<path class="st2" d="M266.9,173l28.6,4.2c1.5,0.2,2.5,1.6,2.3,3l-4.5,30.2c-0.2,1.5-1.6,2.5-3,2.3l-28.6-4.2
			c-1.5-0.2-2.5-1.6-2.3-3l4.5-30.2C264.1,173.8,265.4,172.8,266.9,173z"/>
		<polygon class="st0" points="136.2,142.8 136.3,142.7 143,150.9 145.3,150.9 146.2,150 136.2,137.7 		"/>
		<polygon class="st0" points="136.3,130.4 149.7,146.7 151.8,144.7 151.8,144.3 140.5,130.4 		"/>
		<polygon class="st0" points="151.8,130.4 146.6,130.4 151.8,136.8 		"/>
		<polygon points="146.6,130.4 140.5,130.4 151.8,144.3 151.8,136.8 		"/>
		<polygon points="136.2,142.8 136.2,150.1 136.2,150.9 143,150.9 136.3,142.7 		"/>
		<polygon points="136.2,130.4 136.2,137.7 146.2,150 149.7,146.7 136.3,130.4 		"/>
		<polygon points="160.2,203.2 164.8,201.3 181.7,201.3 186.4,203.2 186.4,208.4 160.2,208.4 		"/>
		<rect x="164.8" y="138.6" transform="matrix(-1 -4.468171e-11 4.468171e-11 -1 346.5828 345.921)" width="16.9" height="68.7"/>
		<g>
			<path d="M297.7,145.1H151.5v-13.3h131.1L297.7,145.1z M152.4,144.2h142.8l-13-11.5H152.4V144.2z"/>
		</g>
		<g>
			<g>
				<path d="M197.8,145h-46v-13.1h46V145z"/>
			</g>
		</g>
		<g>
			<path d="M145.4,151.3h-9.6V130h16.3v14.8L145.4,151.3z M136.5,150.6h8.6l6.3-6.1v-13.8h-14.9V150.6z"/>
		</g>
		<g>
			<path d="M226.1,145h-15v-13.1h15V145z M211.8,144.3h13.7v-11.7h-13.7V144.3z"/>
		</g>
		<g>
			<path d="M254.4,145h-15v-13.1h15V145z M240.1,144.3h13.7v-11.7h-13.7V144.3z"/>
		</g>
		<g>
			<path d="M282.7,145h-15v-13.1h15V145z M268.4,144.3h13.7v-11.7h-13.7V144.3z"/>
		</g>
		<g>
			<polygon points="268.1,145.1 254.1,132.7 239.8,145.1 225.8,132.7 211.5,145.1 197.3,132.5 197.7,132 211.5,144.2 225.8,131.8 
				239.8,144.2 254.1,131.8 268.1,144.2 282.2,132 282.6,132.5 			"/>
		</g>
		<g>
			<polygon points="268,132.7 167.6,113.3 141.5,130.8 141,130 167.4,112.3 167.6,112.3 268.2,131.8 			"/>
		</g>
		<g>
			<path d="M175.9,132.7h-9.4v-24.5l9.4,21.4V132.7z M167.5,131.8h7.5v-2l-7.5-17V131.8z"/>
		</g>
		<g>
			<polygon points="175.5,130.2 166.6,130.2 171.2,122.5 166.8,120.1 167.2,119.2 172.6,122.2 168.4,129.3 175.5,129.3 			"/>
		</g>
		<polygon points="198.1,176.7 197.6,181.4 197.2,184.8 195.2,203.5 201.6,204.2 203,191 209.2,197.8 216.8,192.5 215.4,205.7 
			221.7,206.4 223.7,187.7 224.1,184.2 224.6,179.5 210.1,189.7 		"/>
		<path d="M249.9,178.7c-1.8-0.6-3.9-0.7-6.1-0.5l-12.1,1.4l3.1,26.5l6.3-0.7l-0.9-7.7l5.8-0.7c2.2-0.3,4.1-0.9,5.8-1.9
			c1.6-1,2.8-2.2,3.6-3.8c0.8-1.5,1.1-3.2,0.9-5.1c-0.2-1.9-0.9-3.5-2-4.8C253.2,180.2,251.8,179.3,249.9,178.7z M248.9,190
			c-0.9,0.8-2.1,1.3-3.6,1.5l-5.7,0.7l-0.9-7.7l5.7-0.7c1.6-0.2,2.9,0,3.9,0.6c1,0.6,1.6,1.5,1.7,2.7
			C250.1,188.2,249.7,189.2,248.9,190z"/>
		<polygon points="276.3,200.1 279.3,179.7 273,178.7 269.1,205.1 285.4,207.5 286.3,201.6 		"/>
		<g>
			<rect x="266.9" y="144.3" class="st3" width="0.8" height="18.9"/>
		</g>
		<g>
			<rect x="269.1" y="144.3" class="st3" width="0.8" height="18.9"/>
		</g>
		<circle cx="269.5" cy="163.1" r="0.9"/>
		<circle cx="267.3" cy="163.1" r="0.9"/>
		<polygon class="st0" points="270.5,168.2 272.6,163.1 264.3,163.1 266.4,168.2 		"/>
		<polygon class="st4" points="264.3,163.1 265.4,165.7 267,168.2 268.5,168.2 265.2,163.1 		"/>
		<polygon class="st4" points="272.6,163.1 271,163.1 272,164.6 		"/>
		<polygon class="st4" points="270.1,163.1 268.6,163.1 271,167 271.6,165.5 		"/>
		<polygon class="st4" points="266.1,163.1 269.4,168.2 270.5,168.2 270.7,167.8 267.7,163.1 		"/>
		<polygon points="272,164.6 271,163.1 270.1,163.1 271.6,165.5 		"/>
		<polygon points="266.4,168.2 267,168.2 265.4,165.7 		"/>
		<polygon points="265.2,163.1 268.5,168.2 269.4,168.2 266.1,163.1 		"/>
		<polygon points="267.7,163.1 270.7,167.8 271,167 268.6,163.1 		"/>
		<rect x="266.4" y="168.2" width="4.2" height="0.8"/>
		<rect x="267.7" y="169" width="1.5" height="2.2"/>
		<rect x="267.7" y="170.5" class="st5" width="1.5" height="0.3"/>
		<g>
			<path class="st0" d="M267.7,178.8c-0.2,0-0.4-0.1-0.6-0.2c0,0-0.1,0-0.1-0.1l-0.1-0.1l0,0c-0.1-0.1-0.2-0.1-0.2-0.2
				c-0.2-0.3-0.4-0.5-0.5-0.9c0,0.1-0.1,0.3-0.1,0.5c0,1,0.8,1.7,1.7,1.7c0.6,0,1.1-0.3,1.4-0.7
				C268.8,178.9,268.3,178.9,267.7,178.8z"/>
			<path class="st0" d="M268.1,177.8c0.6,0.1,1.1-0.1,1.5-0.3c-0.1-0.9-0.8-1.5-1.7-1.5c-0.5,0-0.9,0.2-1.2,0.5
				c0.1,0.3,0.2,0.6,0.4,0.8C267.4,177.7,267.9,177.8,268.1,177.8z"/>
			<path d="M271.2,174.4L271.2,174.4c-0.4-0.5-0.9-1-1.4-1.4c-0.7-0.5-0.9-1-0.9-1.8h-0.8c0,1.1,0.3,1.7,1.2,2.4
				c0.3,0.3,0.7,0.5,0.9,0.8c0.3,0.3,0.4,0.7,0.5,1c0.1,0.5,0,0.9-0.2,1.3c-0.1,0.1-0.1,0.2-0.2,0.3v0c0,0-0.2,0.3-0.7,0.5
				c0,0.1,0,0.1,0,0.2c0,0.4-0.1,0.7-0.3,1c0.2,0,0.4-0.1,0.6-0.2c0.2-0.1,0.3-0.2,0.5-0.3c0.1-0.1,0.2-0.1,0.2-0.2
				c0.1,0,0.1-0.1,0.1-0.1l0,0l0,0l0,0l0,0l0,0c0.2-0.3,0.4-0.6,0.6-0.9c0.1-0.2,0.2-0.5,0.2-0.7l0,0
				C271.8,175.2,271.2,174.4,271.2,174.4z"/>
			<path d="M269.6,177.6c-0.4,0.2-0.9,0.4-1.5,0.3c-0.2-0.1-0.7-0.1-1-0.5c-0.2-0.2-0.3-0.5-0.4-0.8c-0.2,0.2-0.4,0.5-0.5,0.8
				c0.1,0.3,0.2,0.6,0.5,0.9c0.1,0.1,0.1,0.1,0.2,0.2l0,0l0.1,0.1c0,0,0.1,0.1,0.1,0.1c0.2,0.1,0.4,0.2,0.6,0.2
				c0.5,0.1,1.1,0.1,1.5,0c0.2-0.3,0.3-0.6,0.3-1C269.6,177.7,269.6,177.7,269.6,177.6z"/>
		</g>
	</g>
</g>
</svg>
